HIERARCHY
ROOT Hips
{
	OFFSET -0.001795 -0.223333 0.028219
	CHANNELS 6 Xposition Yposition Zposition Zrotation Yrotation Xrotation 
	JOINT LeftUpLeg
	{
		OFFSET 0.069520 -0.091406 -0.006815
		CHANNELS 3 Zrotation Yrotation Xrotation
		JOINT LeftLeg
		{
			OFFSET 0.034277 -0.375199 -0.004496
			CHANNELS 3 Zrotation Yrotation Xrotation
			JOINT LeftFoot
			{
				OFFSET -0.013596 -0.397961 -0.043693
				CHANNELS 3 Zrotation Yrotation Xrotation
				JOINT LeftToe
				{
					OFFSET 0.026358 -0.055791 0.119288
					CHANNELS 3 Zrotation Yrotation Xrotation
					End Site
					{
						OFFSET 0.000000 0.000000 0.000000
					}
				}
			}
		}
	}
	JOINT RightUpLeg
	{
		OFFSET -0.067670 -0.090522 -0.004320
		CHANNELS 3 Zrotation Yrotation Xrotation
		JOINT RightLeg
		{
			OFFSET -0.038290 -0.382569 -0.008850
			CHANNELS 3 Zrotation Yrotation Xrotation
			JOINT RightFoot
			{
				OFFSET 0.015774 -0.398415 -0.042312
				CHANNELS 3 Zrotation Yrotation Xrotation
				JOINT RightToe
				{
					OFFSET -0.025372 -0.048144 0.123348
					CHANNELS 3 Zrotation Yrotation Xrotation
					End Site
					{
						OFFSET 0.000000 0.000000 0.000000
					}
				}
			}
		}
	}
	JOINT Spine
	{
		OFFSET -0.002533 0.108963 -0.026696
		CHANNELS 3 Zrotation Yrotation Xrotation
		JOINT Spine1
		{
			OFFSET 0.005487 0.135180 0.001092
			CHANNELS 3 Zrotation Yrotation Xrotation
			JOINT Spine2
			{
				OFFSET 0.001457 0.052922 0.025425
				CHANNELS 3 Zrotation Yrotation Xrotation
				JOINT Neck
				{
					OFFSET -0.002778 0.213870 -0.042857
					CHANNELS 3 Zrotation Yrotation Xrotation
					JOINT Head
					{
						OFFSET 0.005152 0.064970 0.051349
						CHANNELS 3 Zrotation Yrotation Xrotation
						End Site
						{
							OFFSET 0.000000 0.000000 0.000000
						}
					}
				}
				JOINT LeftShoulder
				{
					OFFSET 0.078845 0.121749 -0.034090
					CHANNELS 3 Zrotation Yrotation Xrotation
					JOINT LeftArm
					{
						OFFSET 0.090977 0.030469 -0.008868
						CHANNELS 3 Zrotation Yrotation Xrotation
						JOINT LeftForeArm
						{
							OFFSET 0.259612 -0.012772 -0.027456
							CHANNELS 3 Zrotation Yrotation Xrotation
							JOINT LeftHand
							{
								OFFSET 0.249234 0.008986 -0.001171
								CHANNELS 3 Zrotation Yrotation Xrotation
								End Site
								{
									OFFSET 0.000000 0.000000 0.000000
								}
							}
						}
					}
				}
				JOINT RightShoulder
				{
					OFFSET -0.081759 0.118833 -0.038615
					CHANNELS 3 Zrotation Yrotation Xrotation
					JOINT RightArm
					{
						OFFSET -0.096012 0.032551 -0.009143
						CHANNELS 3 Zrotation Yrotation Xrotation
						JOINT RightForeArm
						{
							OFFSET -0.253742 -0.013329 -0.021401
							CHANNELS 3 Zrotation Yrotation Xrotation
							JOINT RightHand
							{
								OFFSET -0.255298 0.007772 -0.005559
								CHANNELS 3 Zrotation Yrotation Xrotation
								End Site
								{
									OFFSET 0.000000 0.000000 0.000000
								}
							}
						}
					}
				}
			}
		}
	}
}
MOTION
Frames: 10
Frame Time: 0.050000
-0.006000 0.950744 -0.053061 -3.460100 8.235105 2.019214 7.003639 -0.290826 -1.073948 4.363624 -0.125251 -4.208471 0.370130 6.469859 12.734637 0.000000 0.000000 0.000000 -3.611166 0.387664 -4.952736 -1.926333 0.318136 1.690375 0.299034 -3.075821 11.574909 0.000000 0.000000 0.000000 -0.310280 0.127181 -3.727489 -1.357947 0.625045 0.305913 5.176856 -2.995556 2.750222 -0.402854 0.885457 -8.136972 0.000000 0.000000 0.000000 -12.650854 -0.573552 -0.969034 -56.611118 -20.831596 3.419231 -155.639070 -58.207192 144.870128 0.000000 0.000000 0.000000 9.274766 8.819459 3.026534 47.799488 27.010496 6.130332 137.958612 61.570548 118.814022 0.000000 0.000000 0.000000 
-0.005918 0.950749 -0.054240 -3.534070 7.997714 2.311930 7.104991 -0.304307 -1.429008 4.407818 -0.137340 -4.081058 0.915239 7.286648 12.720904 0.000000 0.000000 0.000000 -3.763678 0.415676 -5.389495 -1.653633 0.286425 1.803787 0.423048 -2.872747 11.603463 0.000000 0.000000 0.000000 -0.312359 0.129151 -3.759106 -1.305581 0.583830 0.674755 5.595009 -3.132174 2.395486 -0.383579 0.820065 -7.702077 0.000000 0.000000 0.000000 -12.829093 -0.394992 -1.013459 -55.665700 -19.942650 2.939116 -156.130978 -58.108287 145.860087 0.000000 0.000000 0.000000 9.605257 8.167323 2.673224 47.602564 25.889114 5.659788 136.355992 59.641030 114.099389 0.000000 0.000000 0.000000 
-0.005631 0.950483 -0.055686 -3.471428 7.671128 2.453531 7.069061 -0.303870 -1.576946 4.438809 -0.153270 -3.898772 1.022978 7.416108 12.719067 0.000000 0.000000 0.000000 -4.032378 0.430993 -5.738355 -1.557571 0.268569 1.712613 0.756015 -2.369219 11.960006 0.000000 0.000000 0.000000 -0.401459 0.124289 -3.614272 -1.356440 0.606454 0.738760 6.047729 -3.304220 2.529460 -0.729522 1.034783 -7.701310 0.000000 0.000000 0.000000 -13.312520 0.156096 -1.242826 -55.065896 -19.181983 2.510800 -156.262679 -58.103035 146.427967 0.000000 0.000000 0.000000 10.222245 7.774355 2.424724 46.932066 24.979022 5.165815 134.715699 58.365064 109.997679 0.000000 0.000000 0.000000 
-0.005215 0.950407 -0.057185 -3.414357 7.530701 2.582463 6.879381 -0.298190 -1.580030 4.594616 -0.142785 -4.207624 1.297985 7.885804 12.901899 0.000000 0.000000 0.000000 -4.105511 0.457359 -6.182708 -1.697588 0.290325 1.785139 1.130894 -1.777022 12.349926 0.000000 0.000000 0.000000 -0.624663 0.118597 -3.519336 -1.183385 0.523104 0.745669 6.325785 -3.261987 2.737897 -0.740360 1.030450 -7.592464 0.000000 0.000000 0.000000 -13.643365 0.411371 -1.376811 -54.549215 -18.531312 2.136649 -156.295067 -58.034181 146.530915 0.000000 0.000000 0.000000 10.707943 7.295393 2.188391 46.266647 23.881857 4.614898 133.339082 57.386990 106.871984 0.000000 0.000000 0.000000 
-0.004633 0.949816 -0.058553 -3.355484 7.060805 2.569900 6.840816 -0.288150 -1.527691 4.680868 -0.156640 -4.128046 1.334041 7.907429 12.963144 0.000000 0.000000 0.000000 -4.194396 0.473234 -6.446387 -1.809592 0.316874 2.036567 1.425696 -1.255755 12.287917 0.000000 0.000000 0.000000 -0.535151 0.114109 -3.284348 -1.305499 0.579077 0.867141 6.582925 -3.181620 2.726917 -0.844092 1.085834 -7.519786 0.000000 0.000000 0.000000 -14.115144 1.108264 -1.719153 -54.250855 -17.501120 1.630475 -155.413888 -57.411778 144.753924 0.000000 0.000000 0.000000 11.259324 6.837212 1.923356 45.541311 22.759694 4.090730 131.408291 56.370687 102.754011 0.000000 0.000000 0.000000 
-0.004020 0.949398 -0.059771 -3.218507 6.514289 2.763540 6.536535 -0.273244 -1.477227 4.802549 -0.147774 -4.401258 1.598769 8.328574 13.215565 0.000000 0.000000 0.000000 -4.325997 0.497366 -6.832650 -1.883766 0.338173 2.283192 1.840832 -0.570874 12.402962 0.000000 0.000000 0.000000 -0.650377 0.113972 -3.271514 -1.532625 0.681160 1.135266 6.867023 -2.786464 2.415762 -0.829639 1.073933 -7.444714 0.000000 0.000000 0.000000 -14.558697 1.434881 -1.934132 -53.776174 -16.619650 1.223830 -154.116492 -57.191015 142.298586 0.000000 0.000000 0.000000 11.984633 6.516961 1.740480 44.789188 21.695780 3.635485 129.563793 55.853796 99.549977 0.000000 0.000000 0.000000 
-0.003317 0.948954 -0.060868 -3.202257 6.122992 2.766527 6.365076 -0.256344 -1.252625 5.042388 -0.145257 -4.672849 1.696277 8.471590 13.346832 0.000000 0.000000 0.000000 -4.174413 0.513146 -6.911669 -2.114341 0.371258 2.332211 1.946441 -0.404140 12.346928 0.000000 0.000000 0.000000 -0.669032 0.110348 -3.126028 -1.502537 0.668450 1.144434 6.998159 -2.552994 2.259431 -0.695906 0.966242 -7.196517 0.000000 0.000000 0.000000 -15.170551 2.015875 -2.288769 -53.392901 -15.532832 0.719302 -152.334893 -56.688938 138.845896 0.000000 0.000000 0.000000 12.561754 6.277267 1.596742 44.199767 20.986944 3.328352 127.231051 55.641767 96.139893 0.000000 0.000000 0.000000 
-0.002710 0.948563 -0.061954 -3.079484 5.604851 2.929675 6.032879 -0.240302 -1.175536 5.226179 -0.132751 -5.023308 1.910784 8.884104 13.870369 0.000000 0.000000 0.000000 -4.321872 0.531015 -7.213501 -2.074243 0.372472 2.477282 2.263658 0.056521 12.551113 0.000000 0.000000 0.000000 -0.622257 0.115821 -3.241291 -1.726110 0.771492 1.403192 7.129740 -1.944875 1.888593 -0.588614 0.882168 -6.775335 0.000000 0.000000 0.000000 -15.286742 2.076000 -2.391757 -53.260456 -14.795238 0.423878 -151.103781 -56.588656 136.418292 0.000000 0.000000 0.000000 12.835856 5.903939 1.444670 43.918164 20.336371 3.098038 125.791977 55.634293 94.399157 0.000000 0.000000 0.000000 
-0.002439 0.948366 -0.063131 -3.080100 5.540797 2.943838 5.892205 -0.234069 -1.119531 5.493473 -0.141310 -5.123283 1.869716 8.895523 14.164316 0.000000 0.000000 0.000000 -4.177564 0.537155 -7.186028 -2.251500 0.394383 2.440991 2.313253 0.121492 12.611016 0.000000 0.000000 0.000000 -0.696884 0.115720 -3.258647 -1.707346 0.763039 1.390217 7.168735 -1.780249 1.802771 -0.479267 0.804286 -6.663176 0.000000 0.000000 0.000000 -15.463336 2.238873 -2.517188 -52.983668 -14.668760 0.367064 -150.988455 -57.307777 136.722923 0.000000 0.000000 0.000000 13.156925 6.029404 1.508605 43.440734 20.351751 3.060450 125.401752 56.978553 95.665431 0.000000 0.000000 0.000000 
-0.002701 0.948498 -0.064477 -3.051565 5.551027 2.782632 5.849180 -0.227088 -1.024509 5.493604 -0.142440 -5.113359 1.867506 8.895642 14.169378 0.000000 0.000000 0.000000 -4.202572 0.535134 -7.209676 -2.231876 0.392512 2.450669 2.470963 0.313237 12.908382 0.000000 0.000000 0.000000 -0.817189 0.106165 -2.994178 -1.752788 0.792860 1.151581 7.080512 -1.293079 1.990692 -0.361890 0.755197 -6.766459 0.000000 0.000000 0.000000 -15.555885 1.936972 -2.474011 -52.612715 -15.125675 0.547491 -150.820271 -58.328811 136.928971 0.000000 0.000000 0.000000 13.586048 6.151571 1.653794 42.983598 20.321281 2.968071 125.587608 58.710290 98.435495 0.000000 0.000000 0.000000 
